<svg xmlns="http://www.w3.org/2000/svg" xmlns:xlink="http://www.w3.org/1999/xlink" xmlns:sketch="http://www.bohemiancoding.com/sketch/ns"><symbol id="icon-all" viewBox="0 0 24 24">
    <path d="M5 13h14v-2H5v2zm-2 4h14v-2H3v2zM7 7v2h14V7H7z"/>
    <path d="M0 0h24v24H0z" fill="none"/>
</symbol><symbol id="icon-hot" viewBox="0 0 24 24">
    <path d="M13.5.67s.74 2.65.74 4.8c0 2.06-1.35 3.73-3.41 3.73-2.07 0-3.63-1.67-3.63-3.73l.03-.36C5.21 7.51 4 10.62 4 14c0 4.42 3.58 8 8 8s8-3.58 8-8C20 8.61 17.41 3.8 13.5.67zM11.71 19c-1.78 0-3.22-1.4-3.22-3.14 0-1.62 1.05-2.76 2.81-3.12 1.77-.36 3.6-1.21 4.62-2.58.39 1.29.59 2.65.59 4.04 0 2.65-2.15 4.8-4.8 4.8z"/>
    <path d="M0 0h24v24H0z" fill="none"/>
</symbol><symbol id="icon-pin" viewBox="0 0 50 62.5">
  <g><polygon fill="#fff" points="595.758,1224.669 593.379,1252.229 598.776,1252.229 596.713,1224.669  "/>
    <g><circle fill="#fff" cx="596.249" cy="1218.294" r="4.404"/>
      <g>
        <g><path fill="#fff" d="M590.851,1226.847c-2.808-1.835-4.484-4.928-4.484-8.274c0-3.425,1.738-6.558,4.649-8.38l-1.061-1.695      c-3.5,2.19-5.589,5.956-5.589,10.075c0,4.023,2.015,7.743,5.39,9.949L590.851,1226.847z"/></g>
        <g><path fill="#fff" d="M601.141,1209.987c3.076,1.757,4.986,5.046,4.986,8.585c0,3.477-1.859,6.737-4.854,8.51l1.019,1.721      c3.6-2.131,5.836-6.051,5.836-10.23c0-4.255-2.297-8.21-5.994-10.322L601.141,1209.987z"/></g>
        <g><path fill="#fff" d="M588.683,1231.004c-4.375-2.668-6.986-7.315-6.986-12.432c0-4.604,2.109-8.838,5.788-11.617      l-1.205-1.596c-4.184,3.16-6.583,7.977-6.583,13.213c0,5.819,2.97,11.105,7.944,14.14L588.683,1231.004z"/></g>
        <g><path fill="#fff" d="M604.768,1206.774c3.777,2.734,6.032,7.146,6.032,11.798c0,5.12-2.739,9.922-7.148,12.531l1.019,1.721      c5.015-2.967,8.13-8.429,8.13-14.252c0-5.292-2.564-10.309-6.859-13.418L604.768,1206.774z"/></g>
      </g>
    </g>
  </g>
  <g><path fill="#fff" d="M38.132,7.263c-1.699-1.711-3.887-2.941-6.566-4.17c-2.92-0.986-5.359-0.997-6.583,0.217   c-0.49,0.486-0.738,1.217-0.74,2.192c0.244,0.244,0.482,0.977,0.965,2.44l-7.114,10.945c-2.681-0.254-4.877,0.467-6.592,2.168   c-2.204,2.185-1.726,5.112,1.672,8.539c1.214,1.225,2.674,2.203,4.378,3.429l-6.887,14.603l8.831-13.619   c1.947,0.983,4.138,1.727,6.09,1.731c2.922,0.501,4.875,0.019,6.1-1.194c1.223-1.213,1.715-2.676,0.992-4.382   c0.006-1.465-0.965-2.933-1.934-4.4l5.412-12.654c1.709-0.238,2.441-0.478,2.932-0.966C40.312,10.931,40.075,9.222,38.132,7.263z    M29.771,26.246c0,0,0,0-0.248,0.245c-0.488,0.484-1.709,0.725-3.414,0.475c-0.731-0.248-1.461-0.495-2.192-0.74l8.344-14.11   l2.924,0.989L29.771,26.246z M37.597,9.326c-0.49,0.904-2.934,0.522-5.463-0.852c-2.525-1.373-4.174-3.221-3.684-4.126   c0.494-0.904,2.939-0.521,5.467,0.855C36.442,6.576,38.089,8.422,37.597,9.326z"/></g>
</symbol><symbol id="icon-qq" viewBox="0 0 50 50">
    <!-- Generator: Sketch 3.1.1 (8761) - http://www.bohemiancoding.com/sketch -->
    <title>QQ_L</title>
    <desc>Created with Sketch.</desc>
    
    <g id="Page-1" stroke="none" stroke-width="1" fill="none" fill-rule="evenodd" sketch:type="MSPage">
        <g id="Artboard-1" sketch:type="MSArtboardGroup" transform="translate(-675.000000, -225.000000)" fill="#999b9d">
            <g id="line-icons" sketch:type="MSLayerGroup" transform="translate(475.000000, 225.000000)">
                <g id="row-1-line-icons" sketch:type="MSShapeGroup">
                    <path d="M225,50 C238.807119,50 250,38.8071194 250,25 C250,11.1928806 238.807119,0 225,0 C211.192881,0 200,11.1928806 200,25 C200,38.8071194 211.192881,50 225,50 Z M225,48 C237.70255,48 248,37.7025499 248,25 C248,12.2974501 237.70255,2 225,2 C212.29745,2 202,12.2974501 202,25 C202,37.7025499 212.29745,48 225,48 Z M213.159685,20.1511068 C212.990478,20.6036478 213.238562,20.8901477 213.159685,22.6130934 C213.138469,23.076522 211.163729,25.1742267 210.38003,27.3529396 C209.602575,29.5142904 209.495594,31.7721596 210.6959,32.6595554 C211.896205,33.5469513 213.013651,29.705727 213.159685,30.2646465 C213.223396,30.5084921 213.302847,30.7621756 213.39848,31.0228035 C213.782604,32.0696579 214.427798,33.2285502 215.362743,34.3119703 C215.552669,34.5320581 214.20584,34.936779 213.39848,36.3266068 C212.591119,37.7164345 213.629792,40.2433936 217.645037,40.2433929 C222.825304,40.2433929 223.983191,38.4003103 224.088783,38.4083862 C224.474499,38.4378867 224.501156,38.4083866 224.910045,38.4083867 C225.410279,38.4083868 225.203307,38.4490826 225.668133,38.4083862 C225.919165,38.3864079 228.436815,40.6141932 231.922356,40.2433929 C237.860711,39.6116562 236.952629,37.597665 236.486501,36.3266068 C236.000001,35 234.279746,34.3783759 234.355685,34.293448 C235.778228,32.702508 236.00364,31.7257712 236.4865,30.2646469 C236.684996,29.6640044 238.062935,33.5692002 239.12419,32.6595554 C239.566409,32.2805119 240.450844,30.7011604 239.566409,27.3529396 C238.681973,24.0047188 236.971895,23.2409315 237.00905,22.6130932 C237.086383,21.3063686 237.041484,20.388745 236.976275,20.1511068 C236.660405,19 236,19.2541683 236,19 C236,12.3725827 231.075133,7 225,7 C218.924867,7 214,12.3725827 214,19 C214,19.5260302 213.538729,19.1373615 213.159685,20.1511068 Z" id="QQ_L"/>
                </g>
            </g>
        </g>
    </g>
</symbol><symbol id="icon-reply" viewBox="0 0 24 24">
    <path d="M10 9V5l-7 7 7 7v-4.1c5 0 8.5 1.6 11 5.1-1-5-4-10-11-11z"/>
    <path d="M0 0h24v24H0z" fill="none"/>
</symbol><symbol id="icon-search" viewBox="0 0 24 24">
    <path d="M15.5 14h-.79l-.28-.27C15.41 12.59 16 11.11 16 9.5 16 5.91 13.09 3 9.5 3S3 5.91 3 9.5 5.91 16 9.5 16c1.61 0 3.09-.59 4.23-1.57l.27.28v.79l5 4.99L20.49 19l-4.99-5zm-6 0C7.01 14 5 11.99 5 9.5S7.01 5 9.5 5 14 7.01 14 9.5 11.99 14 9.5 14z"/>
    <path d="M0 0h24v24H0z" fill="none"/>
</symbol><symbol id="icon-sina" viewBox="0 0 50 50">
    <!-- Generator: Sketch 3.1.1 (8761) - http://www.bohemiancoding.com/sketch -->
    <title>sina_weibo_L</title>
    <desc>Created with Sketch.</desc>
    
    <g id="Page-1" stroke="none" stroke-width="1" fill="none" fill-rule="evenodd" sketch:type="MSPage">
        <g id="Artboard-1" sketch:type="MSArtboardGroup" transform="translate(-975.000000, -225.000000)" fill="#2F4074">
            <g id="line-icons" sketch:type="MSLayerGroup" transform="translate(475.000000, 225.000000)">
                <g id="row-1-line-icons" sketch:type="MSShapeGroup">
                    <path d="M525,50 C538.807119,50 550,38.8071194 550,25 C550,11.1928806 538.807119,0 525,0 C511.192881,0 500,11.1928806 500,25 C500,38.8071194 511.192881,50 525,50 Z M525,48 C537.70255,48 548,37.7025499 548,25 C548,12.2974501 537.70255,2 525,2 C512.29745,2 502,12.2974501 502,25 C502,37.7025499 512.29745,48 525,48 Z M522.5,38 C531.060414,38 537.933212,33.5228478 537.933212,28 C537.933212,23.334301 532.090445,23.334301 532.090445,23.0331268 C532.090445,22.7319527 535,20.0213909 532.090445,18.3348184 C529.180889,16.6482458 523.858948,19.2124566 524.018991,18.9371657 C526.307911,15 523.036296,13.756979 521.368663,13.756979 C517.39317,13.756979 507,22.4771522 507,28 C507,33.5228478 513.939586,38 522.5,38 Z M522.904625,34.9367424 C528.373725,34.1681106 532.402291,30.6631839 531.902681,27.108269 C531.40307,23.5533541 526.564475,21.2946257 521.095375,22.0632576 C515.626275,22.8318894 511.597709,26.3368161 512.097319,29.891731 C512.59693,33.4466459 517.435525,35.7053743 522.904625,34.9367424 Z M521.89381,33.9683706 C525.146637,33.3360852 527.356433,30.6260695 526.829528,27.9153808 C526.302624,25.204692 523.238547,23.5198134 519.98572,24.1520988 C516.732894,24.7843842 514.523098,27.4943999 515.050002,30.2050887 C515.576907,32.9157775 518.640984,34.6006561 521.89381,33.9683706 Z M522,29 C522.552285,29 523,28.5522848 523,28 C523,27.4477152 522.552285,27 522,27 C521.447715,27 521,27.4477152 521,28 C521,28.5522848 521.447715,29 522,29 Z M519.694162,31.2811048 C520.695242,30.8142935 521.222959,29.8272166 520.87285,29.0764066 C520.522742,28.3255966 519.427387,28.0953702 518.426307,28.5621814 C517.425227,29.0289927 516.897511,30.0160696 517.247619,30.7668796 C517.597728,31.5176896 518.693082,31.747916 519.694162,31.2811048 Z M535.885232,15.9254292 C534.07819,14.2990914 531.990781,14.8689792 531.990781,14.8689792 C531.443588,14.94134 531,15.4488832 531,15.9938303 L531,15.7146504 C531,16.2635277 531.439556,16.6793045 531.994147,16.675116 C531.994147,16.675116 533.716782,16.4073074 534.680537,17.551767 C535.644293,18.6962267 534.956652,20.2688732 534.956652,20.2688732 C534.804158,20.797527 535.127636,21.2260854 535.68525,21.2260854 L535.78404,21.2260854 C536.338928,21.2260853 536.875438,20.7893301 536.95291,20.2414445 C536.95291,20.2414445 537.692274,17.5517671 535.885232,15.9254292 Z M539.258377,12.6727538 C535.945467,9.54054748 531.496957,9.98966964 531.496957,9.98966964 C530.670211,9.99537494 530,10.6744486 530,11.492665 L530,11.1800888 C530,12.0044649 530.679948,12.6392265 531.492743,12.6400384 C531.492743,12.6400384 535.764763,12.1470597 537.752509,15.0000002 C539.740254,17.8529408 538.924435,21.0067557 538.924435,21.0067557 C538.809465,21.8264891 539.385054,22.4910142 540.21183,22.4910142 L539.871027,22.4910142 C540.697005,22.4910142 541.458872,21.8279629 541.534153,21.0090508 C541.534153,21.0090508 542.571287,15.8049598 539.258377,12.6727538 Z" id="sina_weibo_L"/>
                </g>
            </g>
        </g>
    </g>
</symbol><symbol id="icon-star" viewBox="0 0 24 24">
    <path d="M12 17.27L18.18 21l-1.64-7.03L22 9.24l-7.19-.61L12 2 9.19 8.63 2 9.24l5.46 4.73L5.82 21z"/>
    <path d="M0 0h24v24H0z" fill="none"/>
</symbol><symbol id="icon-thumb-up" viewBox="0 0 24 24">
    <path d="M0 0h24v24H0z" fill="none"/>
    <path d="M1 21h4V9H1v12zm22-11c0-1.1-.9-2-2-2h-6.31l.95-4.57.03-.32c0-.41-.17-.79-.44-1.06L14.17 1 7.59 7.59C7.22 7.95 7 8.45 7 9v10c0 1.1.9 2 2 2h9c.83 0 1.54-.5 1.84-1.22l3.02-7.05c.09-.23.14-.47.14-.73v-1.91l-.01-.01L23 10z"/>
</symbol><symbol id="icon-wechat" viewBox="0 0 50 50">
    <!-- Generator: Sketch 3.1.1 (8761) - http://www.bohemiancoding.com/sketch -->
    <title>wechat_L</title>
    <desc>Created with Sketch.</desc>
    
    <g id="Page-1" stroke="none" stroke-width="1" fill="none" fill-rule="evenodd" sketch:type="MSPage">
        <g id="Artboard-1" sketch:type="MSArtboardGroup" transform="translate(-475.000000, -225.000000)" fill="#2F4074">
            <g id="line-icons" sketch:type="MSLayerGroup" transform="translate(475.000000, 225.000000)">
                <g id="row-1-line-icons" sketch:type="MSShapeGroup">
                    <path d="M22.5818678,31.71349 C21.906665,31.8201846 21.2108648,31.8759226 20.5,31.8759226 C19.0813191,31.8759226 17.7226381,31.6539257 16.4679363,31.2479377 C15.8369252,31.0437593 13.5312811,33.4583658 12.9584621,33.1659495 C12.6171915,32.9917354 13.9881731,30.1373983 13.6707262,29.9346027 C10.8373094,28.1245223 9,25.2166612 9,21.9379613 C9,16.4493766 14.1487251,12 20.5,12 C26.4887062,12 31.4082411,15.9558822 31.950398,21.0087917 C36.9879721,21.2058777 41,24.6917757 41,28.963141 C41,31.6157194 39.4527269,33.9653755 37.0734414,35.4125598 C36.6253143,35.68513 38.0437122,37.9833522 37.5413346,38.1878882 C37.231698,38.3139523 35.0166252,36.3686672 34.6893143,36.466427 C33.6924546,36.764165 32.6188134,36.9262819 31.5,36.9262819 C27.4065495,36.9262819 23.9177915,34.7561207 22.5818678,31.71349 L22.5818678,31.71349 Z M22.0560746,29.8333609 C21.5497574,29.9033498 21.0299462,29.9397533 20.5,29.9397533 C19.1737844,29.9397533 17.911041,29.7117672 16.7644182,29.2999635 C16.6500415,29.2588856 16.242183,29.1358252 16.0215435,29.2999639 C15.5255557,29.6689406 14.8604646,30.434826 14.8604646,30.434826 C14.8604646,30.434826 15.1039515,29.8771525 15.1855665,29.0627797 C15.2228582,28.6906748 14.654947,28.4297633 14.5416073,28.3531011 C12.381737,26.8921787 11,24.4786686 11,21.9698767 C11,17.5682351 15.2532946,14 20.5,14 C25.3988472,14 29.4316437,17.1107699 29.944861,21.1061734 C25.4379506,21.7282549 22,25.0091601 22,28.963141 C22,29.2572095 22.0190164,29.5475551 22.0560746,29.8333609 L22.0560746,29.8333609 Z M25,50 C38.8071194,50 50,38.8071194 50,25 C50,11.1928806 38.8071194,0 25,0 C11.1928806,0 0,11.1928806 0,25 C0,38.8071194 11.1928806,50 25,50 Z M25,48 C37.7025499,48 48,37.7025499 48,25 C48,12.2974501 37.7025499,2 25,2 C12.2974501,2 2,12.2974501 2,25 C2,37.7025499 12.2974501,48 25,48 Z M16.5,20 C17.3284272,20 18,19.3284272 18,18.5 C18,17.6715728 17.3284272,17 16.5,17 C15.6715728,17 15,17.6715728 15,18.5 C15,19.3284272 15.6715728,20 16.5,20 Z M24.5,20 C25.3284272,20 26,19.3284272 26,18.5 C26,17.6715728 25.3284272,17 24.5,17 C23.6715728,17 23,17.6715728 23,18.5 C23,19.3284272 23.6715728,20 24.5,20 Z M28,27 C28.5522848,27 29,26.5522848 29,26 C29,25.4477152 28.5522848,25 28,25 C27.4477152,25 27,25.4477152 27,26 C27,26.5522848 27.4477152,27 28,27 Z M34,27 C34.5522848,27 35,26.5522848 35,26 C35,25.4477152 34.5522848,25 34,25 C33.4477152,25 33,25.4477152 33,26 C33,26.5522848 33.4477152,27 34,27 Z" id="wechat_L"/>
                </g>
            </g>
        </g>
    </g>
</symbol></svg>