<svg xmlns="http://www.w3.org/2000/svg" xmlns:xlink="http://www.w3.org/1999/xlink" version="1.1" x="0px" y="0px" viewBox="0 0 50 62.5" enable-background="new 0 0 50 50" xml:space="preserve">
  <g><polygon fill="#fff" points="595.758,1224.669 593.379,1252.229 598.776,1252.229 596.713,1224.669  "/>
    <g><circle fill="#fff" cx="596.249" cy="1218.294" r="4.404"/>
      <g>
        <g><path fill="#fff" d="M590.851,1226.847c-2.808-1.835-4.484-4.928-4.484-8.274c0-3.425,1.738-6.558,4.649-8.38l-1.061-1.695      c-3.5,2.19-5.589,5.956-5.589,10.075c0,4.023,2.015,7.743,5.39,9.949L590.851,1226.847z"/></g>
        <g><path fill="#fff" d="M601.141,1209.987c3.076,1.757,4.986,5.046,4.986,8.585c0,3.477-1.859,6.737-4.854,8.51l1.019,1.721      c3.6-2.131,5.836-6.051,5.836-10.23c0-4.255-2.297-8.21-5.994-10.322L601.141,1209.987z"/></g>
        <g><path fill="#fff" d="M588.683,1231.004c-4.375-2.668-6.986-7.315-6.986-12.432c0-4.604,2.109-8.838,5.788-11.617      l-1.205-1.596c-4.184,3.16-6.583,7.977-6.583,13.213c0,5.819,2.97,11.105,7.944,14.14L588.683,1231.004z"/></g>
        <g><path fill="#fff" d="M604.768,1206.774c3.777,2.734,6.032,7.146,6.032,11.798c0,5.12-2.739,9.922-7.148,12.531l1.019,1.721      c5.015-2.967,8.13-8.429,8.13-14.252c0-5.292-2.564-10.309-6.859-13.418L604.768,1206.774z"/></g>
      </g>
    </g>
  </g>
  <g><path
    fill="#fff"
    d="M38.132,7.263c-1.699-1.711-3.887-2.941-6.566-4.17c-2.92-0.986-5.359-0.997-6.583,0.217   c-0.49,0.486-0.738,1.217-0.74,2.192c0.244,0.244,0.482,0.977,0.965,2.44l-7.114,10.945c-2.681-0.254-4.877,0.467-6.592,2.168   c-2.204,2.185-1.726,5.112,1.672,8.539c1.214,1.225,2.674,2.203,4.378,3.429l-6.887,14.603l8.831-13.619   c1.947,0.983,4.138,1.727,6.09,1.731c2.922,0.501,4.875,0.019,6.1-1.194c1.223-1.213,1.715-2.676,0.992-4.382   c0.006-1.465-0.965-2.933-1.934-4.4l5.412-12.654c1.709-0.238,2.441-0.478,2.932-0.966C40.312,10.931,40.075,9.222,38.132,7.263z    M29.771,26.246c0,0,0,0-0.248,0.245c-0.488,0.484-1.709,0.725-3.414,0.475c-0.731-0.248-1.461-0.495-2.192-0.74l8.344-14.11   l2.924,0.989L29.771,26.246z M37.597,9.326c-0.49,0.904-2.934,0.522-5.463-0.852c-2.525-1.373-4.174-3.221-3.684-4.126   c0.494-0.904,2.939-0.521,5.467,0.855C36.442,6.576,38.089,8.422,37.597,9.326z"/></g>
</svg>
