<?xml version="1.0" encoding="UTF-8" standalone="no"?>
<svg width="18px" height="16px" viewBox="0 0 18 16" version="1.1" xmlns="http://www.w3.org/2000/svg" xmlns:xlink="http://www.w3.org/1999/xlink">

    <defs>
        <path d="M16.693,8.5 C16.287,7.58 15.521,6.85 14.633,6.4 C13.063,5.605 11.111,5.61 9.547,6.42 C8.459,6.978 7.552,7.978 7.294,9.195 C7.081,10.091 7.272,11.055 7.747,11.835 C8.454,13.01 9.732,13.76 11.06,14 C12.023,14.196 13.018,14.08 13.953,13.81 C14.513,14.028 15.013,14.38 15.558,14.64 C15.418,14.17 15.268,13.703 15.108,13.24 C15.718,12.806 16.271,12.266 16.604,11.588 C17.1,10.643 17.13,9.473 16.694,8.501 L16.693,8.5 Z M4.554,1.76 C3.379,2.183 2.314,2.97 1.657,4.04 C1.061,5.007 0.837,6.212 1.125,7.318 C1.413,8.545 2.265,9.573 3.299,10.26 C3.104,10.826 2.911,11.393 2.729,11.963 C3.385,11.623 4.032,11.268 4.685,10.923 C5.471,11.173 6.298,11.295 7.123,11.268 C6.908,10.638 6.857,9.958 6.955,9.3 C7.112,8.386 7.605,7.55 8.289,6.93 C9.439,5.854 11.069,5.4 12.619,5.51 C12.329,4.087 11.329,2.884 10.077,2.19 C8.415,1.254 6.343,1.113 4.554,1.76 Z M11.232,8.85 C11.094,9.284 10.462,9.415 10.156,9.084 C9.819,8.778 9.95,8.138 10.392,8.002 C10.882,7.795 11.447,8.36 11.232,8.85 L11.232,8.85 Z M14.429,8.91 C14.259,9.302 13.674,9.392 13.385,9.09 C13.245,8.963 13.211,8.772 13.155,8.603 C13.229,8.298 13.433,7.981 13.779,7.967 C14.257,7.902 14.677,8.482 14.429,8.91 L14.429,8.91 Z M9.66,4.608 C9.665,5.248 8.81,5.648 8.33,5.214 C7.832,4.857 7.973,3.989 8.558,3.809 C9.081,3.602 9.7,4.043 9.658,4.607 L9.66,4.608 Z M5.62,4.77 C5.506,5.327 4.76,5.596 4.323,5.222 C3.817,4.866 3.959,3.982 4.553,3.802 C5.135,3.578 5.796,4.169 5.621,4.77 L5.62,4.77 Z" id="path-1"></path>
    </defs>
    <g id="Page-1" stroke="none" stroke-width="1" fill="none" fill-rule="evenodd">
        <g id="Shape">
            <use stroke="#9B9B9B" stroke-width="0.8" xlink:href="#path-1"></use>
            <use stroke="none" xlink:href="#path-1"></use>
        </g>
    </g>
</svg>
