<?xml version="1.0" encoding="UTF-8" standalone="no"?>
<svg width="18px" height="14px" viewBox="0 0 18 14" version="1.1" xmlns="http://www.w3.org/2000/svg" xmlns:xlink="http://www.w3.org/1999/xlink">
    <!-- Generator: Sketch 3.6.1 (26313) - http://www.bohemiancoding.com/sketch -->
    <title>Shape</title>
    <desc>Created with Sketch.</desc>
    <defs></defs>
    <g id="Page-1" stroke="none" stroke-width="1" fill="none" fill-rule="evenodd">
        <path d="M7.72,12.532 C5.073,12.792 2.786,11.596 2.614,9.857 C2.442,8.12 4.45,6.497 7.1,6.235 C9.748,5.973 12.034,7.17 12.206,8.909 C12.378,10.647 10.37,12.269 7.721,12.531 L7.72,12.532 Z M7.023,10.466 C6.767,10.876 6.219,11.054 5.805,10.866 C5.398,10.68 5.278,10.206 5.535,9.806 C5.787,9.41 6.318,9.233 6.728,9.406 C7.143,9.581 7.275,10.053 7.023,10.466 L7.023,10.466 Z M7.986,7.573 C6.726,7.245 5.301,7.873 4.753,8.983 C4.196,10.117 4.735,11.373 6.008,11.785 C7.328,12.211 8.882,11.559 9.423,10.335 C9.956,9.141 9.29,7.91 7.986,7.573 L7.986,7.573 Z M12.756,6.349 C13.012,5.706 13.038,5.152 12.761,4.756 C12.241,4.014 10.821,4.054 9.191,4.736 C9.191,4.736 8.681,4.96 8.811,4.554 C9.061,3.749 9.024,3.074 8.634,2.684 C7.75,1.8 5.4,2.718 3.384,4.734 C1.876,6.242 1,7.842 1,9.224 C1,11.871 4.393,13.479 7.713,13.479 C12.063,13.479 14.959,10.951 14.959,8.944 C14.959,7.731 13.936,7.044 13.019,6.758 C12.793,6.691 12.639,6.645 12.756,6.349 Z M14.294,3.373 C13.784,2.805 13.028,2.59 12.33,2.738 C12.046,2.798 11.865,3.078 11.926,3.363 C11.986,3.647 12.266,3.83 12.551,3.768 C12.893,3.696 13.261,3.801 13.513,4.078 C13.763,4.356 13.83,4.734 13.723,5.065 C13.633,5.342 13.785,5.64 14.063,5.73 C14.34,5.818 14.637,5.667 14.726,5.39 C14.946,4.712 14.809,3.94 14.296,3.372 L14.294,3.373 Z M15.908,1.916 C14.856,0.751 13.306,0.306 11.875,0.612 C11.545,0.682 11.333,1.008 11.405,1.339 C11.475,1.669 11.8,1.881 12.131,1.809 C13.149,1.594 14.251,1.909 14.997,2.737 C15.743,3.565 15.945,4.694 15.627,5.683 C15.521,6.006 15.697,6.351 16.02,6.455 C16.342,6.559 16.687,6.383 16.792,6.061 L16.792,6.06 C17.24,4.668 16.957,3.08 15.906,1.917 L15.908,1.916 Z" id="Shape" stroke="#9B9B9B" stroke-width="0.8"></path>
    </g>
</svg>